<?xml version="1.0" encoding="utf-8"?>
<!-- Generator: Adobe Illustrator 23.1.0, SVG Export Plug-In . SVG Version: 6.00 Build 0)  -->
<svg version="1.1" xmlns="http://www.w3.org/2000/svg" xmlns:xlink="http://www.w3.org/1999/xlink" x="0px" y="0px"
	 viewBox="0 0 91.16 57.17" style="enable-background:new 0 0 91.16 57.17;" xml:space="preserve">
<style type="text/css">
	.st0{opacity:0.75;fill:#48B9E1;stroke:#84D4F3;stroke-miterlimit:10;}
	.st1{opacity:0.75;fill:#F37373;stroke:#F3828A;stroke-miterlimit:10;}
	.st2{opacity:0.75;fill:#99CD73;stroke:#BBDDAE;stroke-miterlimit:10;}
	.st3{opacity:0.75;fill:#FFC953;stroke:#FFD075;stroke-miterlimit:10;}
	.st4{fill:#2B6C9F;}
</style>
<g id="CRYSTALS">
	
		<rect x="6.27" y="26.59" transform="matrix(0.7071 0.7071 -0.7071 0.7071 28.703 0.0197)" class="st0" width="16.13" height="16.13"/>
	
		<rect x="68.36" y="15.42" transform="matrix(0.7071 0.7071 -0.7071 0.7071 38.9851 -47.16)" class="st1" width="16.13" height="16.13"/>
	
		<rect x="43.4" y="36.19" transform="matrix(0.7071 0.7071 -0.7071 0.7071 46.365 -23.4311)" class="st2" width="16.13" height="16.13"/>
	
		<rect x="33.34" y="4.01" transform="matrix(0.7071 0.7071 -0.7071 0.7071 20.6653 -25.7366)" class="st3" width="16.13" height="16.13"/>
</g>
<g id="KRYSTAL_x5F_PYXEL">
	<g>
		<g>
			<path class="st4" d="M16.29,37.73v5.01h-2.35V29.22h5.17c1.51,0,2.71,0.39,3.6,1.18c0.89,0.79,1.33,1.83,1.33,3.12
				c0,1.33-0.44,2.36-1.3,3.1c-0.87,0.74-2.09,1.11-3.65,1.11H16.29z M16.29,35.83h2.82c0.84,0,1.47-0.2,1.91-0.59
				c0.44-0.39,0.66-0.96,0.66-1.7c0-0.73-0.22-1.31-0.67-1.75c-0.45-0.44-1.06-0.66-1.84-0.67h-2.89V35.83z"/>
			<path class="st4" d="M28.1,42.74h-2.34V29.22h2.34V42.74z"/>
			<path class="st4" d="M35.16,34.11l2.84-4.89h2.71l-4.09,6.71l4.18,6.82h-2.74l-2.91-4.96l-2.92,4.96h-2.73l4.19-6.82l-4.1-6.71
				h2.71L35.16,34.11z"/>
			<path class="st4" d="M49.98,36.71h-5.55v4.16h6.49v1.88h-8.84V29.22h8.78v1.89h-6.43v3.73h5.55V36.71z"/>
			<path class="st4" d="M54.7,40.87h6.14v1.88h-8.49V29.22h2.35V40.87z"/>
		</g>
	</g>
	<g>
		<g>
			<path class="st4" d="M8.78,20.37L7.25,22v4.22H4.9V12.69h2.35v6.34l1.3-1.61l3.96-4.74h2.84l-5.02,5.99l5.31,7.53h-2.79
				L8.78,20.37z"/>
			<path class="st4" d="M21.38,21.01h-2.62v5.2h-2.35V12.69h4.75c1.56,0,2.76,0.35,3.61,1.05s1.27,1.71,1.27,3.04
				c0,0.91-0.22,1.66-0.65,2.27s-1.04,1.08-1.82,1.41l3.04,5.63v0.12H24.1L21.38,21.01z M18.76,19.12h2.41c0.79,0,1.41-0.2,1.86-0.6
				s0.67-0.95,0.67-1.64c0-0.72-0.21-1.28-0.62-1.68s-1.03-0.6-1.84-0.61h-2.48V19.12z"/>
			<path class="st4" d="M31.77,19.1l3.11-6.41h2.6l-4.53,8.54v4.98h-2.36v-4.98l-4.54-8.54h2.61L31.77,19.1z"/>
			<path class="st4" d="M45.4,22.73c0-0.59-0.21-1.05-0.63-1.38c-0.42-0.32-1.17-0.65-2.26-0.97s-1.96-0.69-2.6-1.1
				c-1.23-0.77-1.85-1.78-1.85-3.03c0-1.09,0.44-1.99,1.33-2.69c0.89-0.71,2.04-1.06,3.46-1.06c0.94,0,1.78,0.17,2.52,0.52
				s1.32,0.84,1.74,1.48c0.42,0.64,0.63,1.35,0.63,2.13H45.4c0-0.71-0.22-1.26-0.66-1.66c-0.44-0.4-1.08-0.6-1.9-0.6
				c-0.77,0-1.36,0.16-1.79,0.49c-0.42,0.33-0.64,0.79-0.64,1.38c0,0.5,0.23,0.91,0.69,1.24c0.46,0.33,1.21,0.65,2.27,0.97
				c1.05,0.31,1.9,0.67,2.54,1.07s1.11,0.86,1.4,1.37c0.3,0.52,0.45,1.12,0.45,1.82c0,1.13-0.43,2.02-1.3,2.69
				c-0.86,0.67-2.04,1-3.52,1c-0.98,0-1.88-0.18-2.7-0.54c-0.82-0.36-1.46-0.86-1.91-1.5s-0.68-1.38-0.68-2.23h2.35
				c0,0.77,0.25,1.36,0.76,1.78c0.51,0.42,1.24,0.63,2.18,0.63c0.82,0,1.43-0.17,1.84-0.5C45.19,23.72,45.4,23.28,45.4,22.73z"/>
			<path class="st4" d="M59.1,14.59h-4.22v11.63h-2.33V14.59h-4.18v-1.89H59.1V14.59z"/>
			<path class="st4" d="M66.86,23.07h-5.24l-1.1,3.15h-2.44l5.11-13.52h2.11l5.12,13.52h-2.45L66.86,23.07z M62.28,21.17h3.92
				l-1.96-5.61L62.28,21.17z"/>
			<path class="st4" d="M73.82,24.34h6.14v1.88h-8.49V12.69h2.35V24.34z"/>
		</g>
	</g>
</g>
</svg>
