<?xml version="1.0" encoding="utf-8"?>
<!-- Generator: Adobe Illustrator 23.1.0, SVG Export Plug-In . SVG Version: 6.00 Build 0)  -->
<svg version="1.1" id="SQUARE_x5F_TABLE_x5F_GAMES_x5F_LOGO"
	 xmlns="http://www.w3.org/2000/svg" xmlns:xlink="http://www.w3.org/1999/xlink" x="0px" y="0px" viewBox="0 0 179.49 104.14"
	 style="enable-background:new 0 0 179.49 104.14;" xml:space="preserve">
<style type="text/css">
	.st0{fill:#F58657;}
	.st1{fill:#383A3F;}
</style>
<path class="st0" d="M146.88,34.53h-43.54c-8.02,0-14.52-6.5-14.52-14.52v0c0-8.02,6.5-14.52,14.52-14.52h43.54
	c8.02,0,14.52,6.5,14.52,14.52v0C161.39,28.03,154.89,34.53,146.88,34.53z"/>
<path class="st0" d="M164.97,66.51H71.41c-8.02,0-14.52-6.5-14.52-14.52v0c0-8.02,6.5-14.52,14.52-14.52h93.56
	c8.02,0,14.52,6.5,14.52,14.52v0C179.49,60.01,172.99,66.51,164.97,66.51z"/>
<path class="st0" d="M146.88,98.14h-76.1c-8.02,0-14.52-6.5-14.52-14.52v0c0-8.02,6.5-14.52,14.52-14.52h76.1
	c8.02,0,14.52,6.5,14.52,14.52v0C161.39,91.64,154.89,98.14,146.88,98.14z"/>
<g>
	<rect x="2.5" y="2.5" class="st0" width="99.14" height="99.14"/>
	<path class="st1" d="M99.14,5v94.14H5V5H99.14 M104.14,0H0v104.14h104.14V0L104.14,0z"/>
</g>
<g>
	<path class="st1" d="M41.64,93.06c-0.93,1.21-2.21,2.12-3.85,2.74s-3.5,0.93-5.59,0.93c-2.14,0-4.04-0.49-5.7-1.46
		s-2.93-2.36-3.82-4.17s-1.36-3.92-1.4-6.34v-2c0-3.87,0.93-6.89,2.78-9.06s4.44-3.26,7.75-3.26c2.85,0,5.11,0.71,6.79,2.12
		s2.68,3.44,3.02,6.09h-4.36c-0.49-3.08-2.28-4.62-5.36-4.62c-1.99,0-3.51,0.72-4.54,2.15s-1.57,3.54-1.61,6.31v1.97
		c0,2.76,0.58,4.91,1.75,6.44c1.17,1.53,2.79,2.29,4.86,2.29c2.27,0,3.89-0.52,4.85-1.55v-5.01h-5.27v-3.38h9.7V93.06z"/>
	<path class="st1" d="M59.95,90.42h-9.91l-2.07,5.96h-4.62l9.67-25.59H57l9.69,25.59h-4.64L59.95,90.42z M51.29,86.83h7.42
		l-3.71-10.62L51.29,86.83z"/>
	<path class="st1" d="M74.45,70.79l7.38,19.62l7.37-19.62h5.75v25.59h-4.43v-8.44l0.44-11.29L83.4,96.38h-3.18l-7.54-19.71
		l0.44,11.27v8.44h-4.43V70.79H74.45z"/>
	<path class="st1" d="M114.26,84.95h-10.51v7.88h12.29v3.55H99.3V70.79h16.61v3.59h-12.16v7.07h10.51V84.95z"/>
	<path class="st1" d="M132.13,89.79c0-1.13-0.4-1.99-1.19-2.6s-2.22-1.22-4.28-1.85s-3.7-1.31-4.92-2.07
		c-2.33-1.46-3.5-3.38-3.5-5.73c0-2.06,0.84-3.76,2.52-5.1s3.86-2,6.55-2c1.78,0,3.37,0.33,4.76,0.98s2.49,1.59,3.29,2.8
		s1.2,2.56,1.2,4.03h-4.43c0-1.34-0.42-2.38-1.26-3.14s-2.04-1.13-3.59-1.13c-1.45,0-2.58,0.31-3.38,0.93s-1.2,1.49-1.2,2.6
		c0,0.94,0.43,1.72,1.3,2.35s2.3,1.24,4.29,1.83s3.59,1.27,4.8,2.02s2.09,1.62,2.65,2.6s0.84,2.12,0.84,3.44
		c0,2.13-0.82,3.83-2.45,5.09s-3.85,1.89-6.65,1.89c-1.85,0-3.55-0.34-5.11-1.03s-2.76-1.63-3.62-2.84s-1.29-2.61-1.29-4.22h4.45
		c0,1.45,0.48,2.58,1.44,3.38s2.34,1.2,4.13,1.2c1.55,0,2.71-0.31,3.49-0.94S132.13,90.82,132.13,89.79z"/>
</g>
<g>
	<path class="st1" d="M81.53,53.7v9.49h-4.45V37.6h9.79c2.86,0,5.13,0.75,6.81,2.24c1.68,1.49,2.52,3.46,2.52,5.91
		c0,2.51-0.82,4.46-2.47,5.86c-1.65,1.4-3.95,2.09-6.92,2.09H81.53z M81.53,50.11h5.34c1.58,0,2.79-0.37,3.62-1.12
		s1.25-1.82,1.25-3.23c0-1.38-0.42-2.49-1.27-3.31s-2-1.25-3.48-1.27h-5.47V50.11z"/>
	<path class="st1" d="M103.89,63.19h-4.43V37.6h4.43V63.19z"/>
	<path class="st1" d="M117.26,46.84l5.38-9.25h5.13l-7.73,12.69l7.91,12.9h-5.19l-5.5-9.39l-5.52,9.39h-5.17l7.93-12.9l-7.75-12.69
		h5.13L117.26,46.84z"/>
	<path class="st1" d="M145.29,51.77h-10.51v7.88h12.29v3.55h-16.73V37.6h16.61v3.59h-12.16v7.07h10.51V51.77z"/>
	<path class="st1" d="M154.24,59.64h11.62v3.55h-16.07V37.6h4.45V59.64z"/>
</g>
<g>
	<path class="st1" d="M23.21,26.2c0-1.13-0.4-1.99-1.19-2.6s-2.22-1.22-4.28-1.85s-3.7-1.31-4.92-2.07c-2.33-1.46-3.5-3.38-3.5-5.73
		c0-2.06,0.84-3.76,2.52-5.1s3.86-2,6.55-2c1.78,0,3.37,0.33,4.76,0.98s2.49,1.59,3.29,2.8s1.2,2.56,1.2,4.03h-4.43
		c0-1.34-0.42-2.38-1.26-3.14s-2.04-1.13-3.59-1.13c-1.45,0-2.58,0.31-3.38,0.93s-1.2,1.49-1.2,2.6c0,0.94,0.43,1.72,1.3,2.35
		s2.3,1.24,4.29,1.83s3.59,1.27,4.8,2.02s2.09,1.62,2.65,2.6s0.84,2.12,0.84,3.44c0,2.13-0.82,3.83-2.45,5.09s-3.85,1.89-6.65,1.89
		c-1.85,0-3.55-0.34-5.11-1.03s-2.76-1.63-3.62-2.84s-1.29-2.61-1.29-4.22h4.45c0,1.45,0.48,2.58,1.44,3.38s2.34,1.2,4.13,1.2
		c1.55,0,2.71-0.31,3.49-0.94S23.21,27.24,23.21,26.2z"/>
	<path class="st1" d="M51,20.67c0,2.43-0.38,4.53-1.15,6.3s-1.84,3.18-3.23,4.23l4.39,3.43l-2.88,2.6l-5.45-4.31
		c-0.71,0.15-1.48,0.23-2.3,0.23c-2.06,0-3.91-0.51-5.53-1.52s-2.88-2.46-3.76-4.33s-1.33-4.04-1.34-6.49v-1.44
		c0-2.5,0.44-4.7,1.33-6.61s2.13-3.37,3.74-4.39s3.45-1.52,5.53-1.52c2.11,0,3.97,0.5,5.58,1.5s2.86,2.44,3.74,4.32
		s1.32,4.07,1.34,6.57V20.67z M46.54,19.33c0-2.88-0.54-5.07-1.62-6.56s-2.6-2.23-4.57-2.23c-1.91,0-3.41,0.75-4.49,2.26
		s-1.64,3.63-1.66,6.37v1.49c0,2.77,0.54,4.93,1.63,6.49s2.6,2.34,4.56,2.34c1.98,0,3.5-0.75,4.56-2.25s1.59-3.69,1.59-6.57V19.33z"
		/>
	<path class="st1" d="M73.34,7.2v17.1c0,2.72-0.87,4.87-2.61,6.46s-4.06,2.38-6.95,2.38c-2.93,0-5.26-0.78-6.98-2.35
		s-2.58-3.74-2.58-6.51V7.2h4.43v17.12c0,1.71,0.43,3.02,1.3,3.92s2.14,1.35,3.83,1.35c3.42,0,5.13-1.8,5.13-5.41V7.2H73.34z"/>
	<path class="st1" d="M91.13,26.84h-9.91l-2.07,5.96h-4.62L84.18,7.2h3.99l9.69,25.59h-4.64L91.13,26.84z M82.46,23.25h7.42
		l-3.71-10.62L82.46,23.25z"/>
	<path class="st1" d="M109.26,22.95h-4.96v9.84h-4.45V7.2h9c2.95,0,5.23,0.66,6.84,1.99s2.41,3.24,2.41,5.75
		c0,1.71-0.41,3.15-1.24,4.3s-1.98,2.04-3.45,2.67l5.75,10.66v0.23h-4.76L109.26,22.95z M104.3,19.37h4.57
		c1.5,0,2.67-0.38,3.52-1.13s1.27-1.79,1.27-3.1c0-1.37-0.39-2.43-1.17-3.18s-1.94-1.14-3.49-1.16h-4.69V19.37z"/>
	<path class="st1" d="M136.38,21.37h-10.51v7.88h12.29v3.55h-16.73V7.2h16.61v3.59h-12.16v7.07h10.51V21.37z"/>
</g>
<g id="Layer_2">
	<g>
		<rect x="7.41" y="41.23" class="st0" width="0.18" height="0.18"/>
		<polygon class="st1" points="10.09,38.73 4.91,38.73 4.91,43.92 10.09,43.92 10.09,38.73 		"/>
	</g>
	<g>
		<rect x="7.41" y="51.6" class="st0" width="0.18" height="0.18"/>
		<polygon class="st1" points="10.09,49.1 4.91,49.1 4.91,54.28 10.09,54.28 10.09,49.1 		"/>
	</g>
	<g>
		<rect x="17.78" y="41.23" class="st0" width="0.19" height="0.18"/>
		<polygon class="st1" points="20.46,38.73 15.28,38.73 15.28,43.92 20.46,43.92 20.46,38.73 		"/>
	</g>
	<g>
		<rect x="17.78" y="51.6" class="st0" width="0.19" height="0.18"/>
		<polygon class="st1" points="20.46,49.1 15.28,49.1 15.28,54.28 20.46,54.28 20.46,49.1 		"/>
	</g>
	<g>
		<rect x="12.59" y="46.22" class="st0" width="0.18" height="0.18"/>
		<polygon class="st1" points="15.28,43.72 10.09,43.72 10.09,48.9 15.28,48.9 15.28,43.72 		"/>
	</g>
	<g>
		<rect x="12.59" y="56.59" class="st0" width="0.18" height="0.18"/>
		<polygon class="st1" points="15.28,54.09 10.09,54.09 10.09,59.27 15.28,59.27 15.28,54.09 		"/>
	</g>
	<g>
		<rect x="22.96" y="46.22" class="st0" width="0.18" height="0.18"/>
		<polygon class="st1" points="25.65,43.72 20.46,43.72 20.46,48.9 25.65,48.9 25.65,43.72 		"/>
	</g>
	<g>
		<rect x="22.96" y="56.59" class="st0" width="0.18" height="0.18"/>
		<polygon class="st1" points="25.65,54.09 20.46,54.09 20.46,59.27 25.65,59.27 25.65,54.09 		"/>
	</g>
	<g>
		<rect x="7.41" y="62.16" class="st0" width="0.18" height="0.18"/>
		<polygon class="st1" points="10.09,59.66 4.91,59.66 4.91,64.85 10.09,64.85 10.09,59.66 		"/>
	</g>
	<g>
		<rect x="17.78" y="62.16" class="st0" width="0.19" height="0.18"/>
		<polygon class="st1" points="20.46,59.66 15.28,59.66 15.28,64.85 20.46,64.85 20.46,59.66 		"/>
	</g>
	<g>
		<rect x="28.15" y="41.13" class="st0" width="0.18" height="0.18"/>
		<polygon class="st1" points="30.83,38.63 25.65,38.63 25.65,43.82 30.83,43.82 30.83,38.63 		"/>
	</g>
	<g>
		<rect x="28.15" y="51.5" class="st0" width="0.18" height="0.18"/>
		<polygon class="st1" points="30.83,49 25.65,49 25.65,54.19 30.83,54.19 30.83,49 		"/>
	</g>
	<g>
		<rect x="38.51" y="51.5" class="st0" width="0.19" height="0.18"/>
		<polygon class="st1" points="41.2,49 36.01,49 36.01,54.19 41.2,54.19 41.2,49 		"/>
	</g>
	<g>
		<rect x="33.33" y="46.12" class="st0" width="0.18" height="0.18"/>
		<polygon class="st1" points="36.01,43.62 30.83,43.62 30.83,48.81 36.01,48.81 36.01,43.62 		"/>
	</g>
	<g>
		<rect x="33.33" y="56.49" class="st0" width="0.18" height="0.18"/>
		<polygon class="st1" points="36.01,53.99 30.83,53.99 30.83,59.18 36.01,59.18 36.01,53.99 		"/>
	</g>
	<g>
		<rect x="43.7" y="56.49" class="st0" width="0.18" height="0.18"/>
		<polygon class="st1" points="46.38,53.99 41.2,53.99 41.2,59.18 46.38,59.18 46.38,53.99 		"/>
	</g>
	<g>
		<rect x="28.15" y="62.07" class="st0" width="0.18" height="0.18"/>
		<polygon class="st1" points="30.83,59.57 25.65,59.57 25.65,64.75 30.83,64.75 30.83,59.57 		"/>
	</g>
	<g>
		<rect x="38.51" y="62.07" class="st0" width="0.19" height="0.18"/>
		<polygon class="st1" points="41.2,59.57 36.01,59.57 36.01,64.75 41.2,64.75 41.2,59.57 		"/>
	</g>
	<g>
		<rect x="48.88" y="61.97" class="st0" width="0.18" height="0.18"/>
		<polygon class="st1" points="51.57,59.47 46.38,59.47 46.38,64.65 51.57,64.65 51.57,59.47 		"/>
	</g>
	<g>
		<rect x="38.51" y="40.99" class="st0" width="0.18" height="0.18"/>
		<polygon class="st1" points="41.2,38.49 36.01,38.49 36.01,43.67 41.2,43.67 41.2,38.49 		"/>
	</g>
	<g>
		<rect x="48.88" y="51.36" class="st0" width="0.19" height="0.18"/>
		<polygon class="st1" points="51.57,48.86 46.38,48.86 46.38,54.04 51.57,54.04 51.57,48.86 		"/>
	</g>
	<g>
		<rect x="43.7" y="45.98" class="st0" width="0.18" height="0.18"/>
		<polygon class="st1" points="46.38,43.48 41.2,43.48 41.2,48.66 46.38,48.66 46.38,43.48 		"/>
	</g>
	<g>
		<rect x="54.07" y="56.35" class="st0" width="0.18" height="0.18"/>
		<polygon class="st1" points="56.75,53.85 51.57,53.85 51.57,59.03 56.75,59.03 56.75,53.85 		"/>
	</g>
	<g>
		<rect x="59.25" y="61.82" class="st0" width="0.18" height="0.18"/>
		<polygon class="st1" points="61.94,59.32 56.75,59.32 56.75,64.51 61.94,64.51 61.94,59.32 		"/>
	</g>
	<g>
		<rect x="48.88" y="40.84" class="st0" width="0.18" height="0.18"/>
		<polygon class="st1" points="51.57,38.34 46.38,38.34 46.38,43.52 51.57,43.52 51.57,38.34 		"/>
	</g>
	<g>
		<rect x="59.25" y="51.21" class="st0" width="0.19" height="0.18"/>
		<polygon class="st1" points="61.94,48.71 56.75,48.71 56.75,53.89 61.94,53.89 61.94,48.71 		"/>
	</g>
	<g>
		<rect x="54.07" y="45.83" class="st0" width="0.19" height="0.18"/>
		<polygon class="st1" points="56.75,43.33 51.57,43.33 51.57,48.51 56.75,48.51 56.75,43.33 		"/>
	</g>
	<g>
		<rect x="64.44" y="56.2" class="st0" width="0.18" height="0.18"/>
		<polygon class="st1" points="67.12,53.7 61.94,53.7 61.94,58.88 67.12,58.88 67.12,53.7 		"/>
	</g>
	<g>
		<rect x="69.62" y="61.68" class="st0" width="0.18" height="0.18"/>
		<polygon class="st1" points="72.31,59.18 67.12,59.18 67.12,64.36 72.31,64.36 72.31,59.18 		"/>
	</g>
</g>
</svg>
